<?xml version="1.0" standalone="no"?>
<!DOCTYPE svg PUBLIC "-//W3C//DTD SVG 20010904//EN"
 "http://www.w3.org/TR/2001/REC-SVG-20010904/DTD/svg10.dtd">
<svg version="1.0" xmlns="http://www.w3.org/2000/svg"
 width="512.000000pt" height="512.000000pt" viewBox="0 0 512.000000 512.000000"
 preserveAspectRatio="xMidYMid meet">
<metadata>
Created by potrace 1.14, written by Peter Selinger 2001-2017
</metadata>
<g transform="translate(0.000000,512.000000) scale(0.100000,-0.100000)"
fill="#000000" stroke="none">
<path d="M2450 5101 c-30 -11 -56 -24 -58 -30 -2 -6 -9 -11 -15 -11 -15 0 -67
-73 -67 -93 0 -9 -4 -17 -9 -19 -6 -1 -11 -14 -13 -28 -2 -14 -6 -29 -9 -35
-11 -20 -2 -370 10 -415 19 -67 47 -111 94 -147 101 -76 276 -69 373 15 23 19
50 63 46 75 -1 4 2 7 7 7 5 0 13 15 17 33 4 17 9 39 12 47 9 36 8 316 -2 329
-8 11 -8 13 2 7 14 -9 11 15 -14 98 -14 46 -50 107 -67 114 -4 2 -14 10 -22
18 -48 49 -196 67 -285 35z"/>
<path d="M888 4375 c-2 -3 -23 -6 -45 -8 -22 -2 -55 -14 -72 -26 -17 -12 -31
-20 -31 -16 0 6 -20 -14 -70 -71 -30 -34 -61 -95 -54 -106 3 -4 1 -8 -4 -8
-17 0 -3 -118 19 -167 26 -56 259 -298 324 -335 59 -34 112 -48 167 -43 69 6
115 30 175 92 60 62 92 135 86 197 -3 23 -5 51 -6 64 0 12 -4 22 -7 22 -3 0
-14 18 -23 39 -20 45 -229 262 -297 308 -48 32 -117 59 -127 49 -4 -3 -11 -1
-18 4 -7 5 -14 8 -17 5z"/>
<path d="M4145 4358 c-60 -22 -109 -62 -231 -185 -141 -142 -177 -201 -177
-288 0 -91 17 -130 87 -201 46 -46 81 -69 119 -79 4 -2 8 -4 10 -5 1 -1 22 -4
47 -5 48 -3 150 21 150 35 0 5 10 12 23 16 35 10 272 250 302 305 32 59 37 79
36 146 -1 95 -75 202 -173 248 -52 24 -145 31 -193 13z"/>
<path d="M2440 3985 c0 -9 -32 -14 -112 -19 -16 0 -28 -4 -28 -7 0 -3 -6 -6
-12 -6 -120 -5 -401 -126 -562 -241 -84 -61 -225 -194 -266 -252 -14 -19 -32
-42 -40 -52 -25 -28 -34 -41 -67 -94 -40 -66 -122 -235 -128 -263 -2 -11 -7
-26 -10 -31 -3 -5 -8 -18 -10 -27 -3 -10 -15 -61 -28 -114 -13 -52 -23 -103
-21 -112 1 -9 -1 -17 -4 -17 -8 0 -10 -44 -12 -185 -1 -132 6 -197 44 -365 17
-75 85 -242 138 -337 33 -59 63 -110 67 -113 3 -3 20 -23 36 -45 16 -22 36
-48 45 -59 25 -31 170 -176 176 -176 3 0 15 -9 27 -21 42 -40 185 -129 268
-168 169 -79 323 -123 484 -136 17 -2 32 -4 35 -5 14 -5 210 -4 210 1 0 4 12
6 28 6 35 0 123 12 162 23 17 5 31 9 33 8 7 -1 125 35 139 42 10 6 23 10 30
10 15 0 220 98 228 109 3 4 25 19 50 33 25 14 55 34 67 45 12 10 36 29 53 42
70 54 197 189 250 266 19 27 41 56 48 63 6 7 12 20 12 28 0 8 4 14 8 14 5 0
22 28 38 63 16 34 32 64 35 67 3 3 8 14 12 25 3 11 18 54 34 95 16 41 30 77
30 80 0 3 6 23 11 45 6 22 14 58 17 80 4 22 9 54 12 70 3 17 6 51 7 77 0 27 3
48 6 48 4 0 4 166 0 173 -1 1 -3 20 -5 42 -7 79 -13 120 -17 135 -6 16 -27
104 -33 130 -17 83 -149 358 -195 407 -9 11 -19 24 -21 30 -17 47 -274 303
-305 303 -7 0 -14 4 -14 9 0 8 -66 56 -85 61 -5 1 -21 10 -35 20 -85 60 -304
143 -430 164 -19 3 -46 8 -60 11 -66 14 -300 24 -300 13 0 -11 -23 -5 -32 7
-5 7 -8 7 -8 0z"/>
<path d="M219 2834 c-57 -13 -98 -32 -116 -54 -7 -8 -13 -11 -13 -6 0 19 -60
-73 -75 -115 -21 -58 -13 -183 13 -231 34 -60 47 -78 55 -78 4 0 17 -9 29 -20
12 -11 30 -20 39 -20 10 0 19 -4 21 -10 1 -5 21 -12 43 -15 49 -8 357 -14 369
-7 5 3 23 6 40 7 43 3 120 41 155 77 53 54 66 93 66 198 0 81 -4 102 -24 139
-26 50 -44 71 -60 71 -6 0 -11 4 -11 10 0 13 -81 49 -122 54 -18 3 -33 5 -33
7 0 8 -335 2 -376 -7z"/>
<path d="M4498 2838 c-91 -19 -153 -60 -199 -135 -21 -33 -24 -50 -24 -138 0
-75 4 -109 17 -135 22 -43 70 -100 85 -100 6 0 16 -7 23 -15 7 -9 15 -13 18
-11 2 3 12 1 22 -4 9 -5 30 -12 46 -16 34 -7 394 -11 394 -4 0 3 10 6 23 7 27
2 158 62 135 63 -3 0 7 14 22 30 40 43 55 93 55 185 0 64 -5 89 -23 125 -24
47 -99 123 -114 114 -4 -3 -8 -1 -8 4 0 6 -12 13 -27 17 -16 4 -37 9 -48 12
-32 8 -359 9 -397 1z"/>
<path d="M1195 1383 c-38 -8 -80 -27 -115 -52 -71 -52 -277 -270 -299 -315
-23 -49 -39 -113 -35 -136 13 -82 32 -123 77 -171 68 -72 141 -107 212 -102
36 2 71 8 85 13 3 1 8 2 13 1 4 0 7 3 7 9 0 6 3 9 8 8 18 -6 78 43 189 156
131 132 153 161 174 221 15 45 21 135 9 150 -4 6 -10 21 -13 35 -9 39 -101
135 -152 159 -45 21 -119 32 -160 24z"/>
<path d="M3796 1373 c-69 -20 -178 -131 -190 -193 -1 -3 -4 -9 -8 -15 -10 -16
-2 -117 12 -155 7 -19 20 -43 28 -52 8 -10 11 -18 6 -18 -5 0 -1 -5 9 -11 9
-5 17 -16 17 -24 0 -7 4 -15 10 -17 5 -2 60 -53 122 -114 108 -106 166 -147
225 -160 49 -10 103 -11 103 -2 0 5 5 6 10 3 17 -11 96 33 141 78 93 92 113
206 56 320 -21 43 -63 92 -152 180 -67 67 -130 129 -141 137 -63 49 -166 67
-248 43z"/>
<path d="M2460 839 c-58 -18 -123 -70 -135 -110 -4 -11 -11 -19 -16 -19 -6 0
-8 -4 -4 -9 3 -5 1 -12 -5 -16 -6 -4 -8 -11 -5 -16 4 -5 2 -9 -2 -9 -5 0 -10
-10 -11 -22 -6 -56 -7 -388 -1 -388 3 0 5 -10 4 -22 -1 -13 0 -27 4 -33 3 -5
6 -12 6 -15 3 -22 18 -50 27 -50 6 0 9 -3 5 -6 -14 -15 71 -86 124 -104 76
-26 193 -21 250 12 35 19 110 99 103 109 -3 5 -1 9 4 9 8 0 16 22 28 75 1 6 3
12 4 15 6 12 5 350 -1 350 -3 0 -5 12 -3 26 6 60 -67 169 -140 206 -48 25
-179 34 -236 17z"/>
</g>
</svg>
